<svg width="117" height="119" viewBox="0 0 117 119" fill="none" xmlns="http://www.w3.org/2000/svg">
<g clip-path="url(#clip0_39_997)">
<path d="M36.6138 118.418C34.7825 118.418 33.7108 118.405 33.432 118.381C31.4717 118.203 8.35998 110.806 1.32409 108.542C1.12252 108.479 0.935677 108.376 0.774525 108.24C0.613372 108.104 0.481141 107.937 0.385555 107.75C0.289181 107.563 0.230921 107.359 0.214136 107.149C0.197351 106.939 0.222378 106.729 0.287754 106.529C0.391864 106.206 0.596317 105.925 0.871615 105.726C1.14691 105.526 1.47878 105.419 1.81935 105.42C1.98687 105.42 2.15333 105.446 2.31257 105.498C13.5063 109.099 31.9315 114.912 33.7233 115.192C34.0146 115.212 34.8533 115.22 36.3058 115.22C44.6631 115.22 69.783 114.925 75.5703 114.833C76.3613 114.821 77.1434 114.666 77.8781 114.374L107.637 99.7286C107.686 99.7036 107.737 99.6815 107.788 99.6624C109.378 99.0747 110.252 97.3447 109.738 95.805C109.61 95.415 109.403 95.055 109.131 94.7469C108.858 94.4388 108.525 94.1891 108.153 94.0128C107.739 93.8133 107.285 93.7093 106.825 93.7086C106.47 93.7094 106.118 93.7718 105.784 93.8928L76.6815 105.689C76.6503 105.703 76.617 105.713 76.5837 105.726C76.1441 105.864 75.6858 105.934 75.2248 105.933H75.0958C74.7412 105.936 74.3873 105.9 74.0407 105.825L46.7962 99.8031C45.5465 99.5185 44.4614 98.7524 43.779 97.6731C43.0967 96.5937 42.8728 95.2893 43.1565 94.046C43.4083 92.9901 44.0094 92.049 44.8633 91.3735C45.7173 90.698 46.7747 90.3274 47.8658 90.321C48.2279 90.3213 48.5888 90.3623 48.9417 90.443L58.3063 92.5766L66.7926 94.4847C67.085 94.5496 67.3836 94.5829 67.6833 94.584C68.4594 94.5821 69.2181 94.3548 69.8662 93.9301C70.3159 93.6374 70.7012 93.2571 70.9988 92.8121C71.2964 92.3671 71.5001 91.8667 71.5976 91.3412C71.9909 89.2717 70.5571 87.1878 68.422 86.7057L45.5497 81.561C45.2663 81.4971 44.9766 81.4652 44.686 81.4658C44.5163 81.4659 44.3467 81.4762 44.1783 81.4968C44.1092 81.5053 44.0397 81.5095 43.9702 81.5093H43.9077C39.2088 81.5093 27.884 85.4577 23.9051 86.9809C23.7198 87.0517 23.523 87.0882 23.3245 87.0885C23.2808 87.0885 23.235 87.0885 23.1913 87.0885L1.67994 85.286C1.46915 85.2687 1.26393 85.21 1.07606 85.1134C0.888188 85.0167 0.721393 84.8841 0.585324 84.7231C0.448696 84.5631 0.345284 84.3777 0.280997 84.1778C0.216709 83.9778 0.192806 83.7672 0.210732 83.558C0.245953 83.1592 0.429491 82.7878 0.725446 82.5165C1.0214 82.2452 1.40848 82.0934 1.81101 82.0908C1.8568 82.0908 1.90261 82.0908 1.94839 82.0908L23.0914 83.854L23.1351 83.8374C25.5845 82.9165 38.0913 78.3202 43.8744 78.2996H43.8953C44.1565 78.2707 44.419 78.2562 44.6819 78.2561C45.2111 78.2567 45.7386 78.3151 46.2551 78.43L69.1296 83.5683C72.944 84.4251 75.4704 88.1729 74.7483 91.9186C74.5725 92.8662 74.2052 93.7686 73.6687 94.571C73.1321 95.3735 72.4375 96.0594 71.6268 96.5872C70.4582 97.3559 69.0885 97.7667 67.6874 97.7689C67.1462 97.7675 66.6068 97.7071 66.0788 97.5888L57.5883 95.6808L48.2134 93.5451C48.0959 93.5188 47.9758 93.5056 47.8554 93.5058C47.4909 93.5074 47.1376 93.6307 46.8519 93.8558C46.5663 94.081 46.3649 94.395 46.2801 94.7475C46.1855 95.1621 46.2601 95.5971 46.4875 95.9571C46.7149 96.3171 47.0766 96.5727 47.4933 96.6679L74.7358 102.69C74.8587 102.711 74.9835 102.72 75.1083 102.717H75.2103C75.3086 102.716 75.4068 102.707 75.5037 102.69H75.5224L104.577 90.9128L104.625 90.8942C105.328 90.6334 106.071 90.4995 106.821 90.4989C107.758 90.5013 108.683 90.7135 109.526 91.1197C110.289 91.4811 110.971 91.9928 111.529 92.6239C112.087 93.2549 112.511 93.9922 112.775 94.7909C113.275 96.3304 113.161 98.0023 112.455 99.4602C111.75 100.918 110.507 102.05 108.985 102.622L79.2453 117.259L79.1392 117.304C78.0157 117.763 76.8158 118.008 75.6015 118.027C70.7236 118.109 45.5185 118.418 36.6138 118.418Z" fill="#A5C6FA"/>
<path d="M44.6854 78.4693C45.1993 78.4696 45.7116 78.5265 46.2129 78.6389L69.0873 83.7774C72.7936 84.6052 75.2492 88.2474 74.5562 91.8875C74.3857 92.8082 74.0286 93.6848 73.5066 94.464C72.9847 95.2431 72.3088 95.9085 71.52 96.4196C70.3849 97.1668 69.0543 97.5662 67.6931 97.5682C67.1672 97.5672 66.643 97.5082 66.1302 97.3923L57.6418 95.4863L48.2648 93.3506C48.1324 93.3201 47.9969 93.3048 47.861 93.3051C47.4492 93.3071 47.0501 93.4468 46.7278 93.7016C46.4054 93.9565 46.1786 94.3118 46.0839 94.7103C45.9783 95.179 46.0641 95.6702 46.3224 96.076C46.5807 96.4819 46.9904 96.7692 47.4615 96.8749L74.6998 102.895C74.837 102.92 74.9765 102.931 75.116 102.928H75.218C75.3304 102.927 75.4425 102.917 75.553 102.897H75.5905L75.6259 102.883L104.664 91.1136L104.706 91.097C105.385 90.8442 106.104 90.7145 106.828 90.7142C107.738 90.7141 108.635 90.9192 109.453 91.3143C110.191 91.6627 110.85 92.1569 111.39 92.7667C111.929 93.3765 112.339 94.0892 112.593 94.8613C113.077 96.3503 112.966 97.9673 112.283 99.3771C111.601 100.787 110.398 101.881 108.926 102.433H108.909H108.893L79.1677 117.062L79.0783 117.104C77.9798 117.552 76.8067 117.791 75.6196 117.809C70.7209 117.886 45.5157 118.194 36.6153 118.194C34.3407 118.194 33.6394 118.174 33.4522 118.157C31.9122 118.018 15.8802 112.983 1.39011 108.329C1.21448 108.274 1.05168 108.184 0.911263 108.065C0.770849 107.947 0.655593 107.802 0.572236 107.638C0.488133 107.476 0.437309 107.298 0.422663 107.116C0.408018 106.934 0.42986 106.75 0.486933 106.576C0.577438 106.295 0.755454 106.05 0.995245 105.877C1.23504 105.703 1.52416 105.61 1.82084 105.61C1.96706 105.611 2.11229 105.634 2.25162 105.678C10.3072 108.269 31.6604 115.063 33.6936 115.38H33.7289C34.0057 115.398 34.8506 115.407 36.3094 115.407C44.6688 115.407 69.7886 115.111 75.5759 115.02C76.3919 115.006 77.1987 114.845 77.9566 114.544H77.9712H77.9878L107.727 99.9066C107.771 99.8847 107.815 99.8654 107.861 99.8487C109.553 99.2279 110.485 97.3757 109.942 95.7326C109.805 95.3156 109.584 94.9307 109.293 94.6013C109.002 94.2719 108.646 94.0048 108.248 93.8163C107.806 93.6042 107.321 93.4939 106.831 93.4934C106.449 93.497 106.072 93.567 105.715 93.7004V93.7004L76.6227 105.496L76.5373 105.527C76.1183 105.657 75.6819 105.723 75.243 105.722H75.1077C74.7698 105.725 74.4327 105.69 74.1026 105.618L46.8622 99.5983C45.6661 99.3264 44.6273 98.5936 43.9741 97.5607C43.321 96.5278 43.1067 95.2793 43.3785 94.0894C43.6176 93.0777 44.192 92.1754 45.0092 91.5275C45.8263 90.8796 46.8389 90.5239 47.884 90.5176C48.2341 90.5172 48.5831 90.5561 48.9245 90.6335L58.289 92.7691L66.7754 94.6751C67.0825 94.7451 67.3967 94.7805 67.7118 94.7806C68.5262 94.7786 69.3221 94.539 70.0009 94.0915C70.4743 93.7846 70.8799 93.3851 71.1929 92.9172C71.506 92.4493 71.72 91.9229 71.8218 91.3702C72.238 89.1869 70.7418 87.0016 68.4922 86.4946L45.5886 81.3541C45.2894 81.2877 44.9837 81.2544 44.6771 81.2548C44.499 81.2546 44.3211 81.2656 44.1444 81.2878C44.0848 81.2911 44.025 81.2911 43.9654 81.2878H43.9009C39.1687 81.2878 27.8043 85.2467 23.8233 86.7719C23.6621 86.8344 23.4907 86.8667 23.3177 86.8671C23.2788 86.8691 23.2399 86.8691 23.2011 86.8671L1.70018 85.0791C1.51681 85.064 1.33824 85.0131 1.17469 84.9293C1.01114 84.8455 0.865807 84.7304 0.747059 84.5907C0.628201 84.451 0.538332 84.2893 0.482614 84.1149C0.426897 83.9405 0.406421 83.7569 0.422409 83.5746C0.452972 83.2276 0.612584 82.9044 0.87006 82.6683C1.12753 82.4322 1.46434 82.3 1.81459 82.2978H1.93531L23.0305 84.0589H23.1241L23.2115 84.0257C25.6546 83.1069 38.1303 78.521 43.878 78.5003H43.9217C44.1754 78.4732 44.4303 78.4594 44.6854 78.4589V78.4693ZM44.6854 78.045C44.415 78.0451 44.1448 78.0596 43.8759 78.0885C38.0491 78.1092 25.4986 82.7241 23.0659 83.6408L1.97067 81.8797C1.91934 81.8797 1.86731 81.8797 1.81459 81.8797C1.35968 81.8812 0.921806 82.0519 0.587122 82.3583C0.252437 82.6647 0.0451981 83.0846 0.00620783 83.5353C-0.0137309 83.7722 0.0135441 84.0107 0.0864811 84.2371C0.159418 84.4635 0.276587 84.6734 0.43125 84.8547C0.585912 85.036 0.775031 85.1851 0.987777 85.2936C1.20052 85.4021 1.43271 85.4677 1.67101 85.4868L23.1782 87.283C23.2282 87.283 23.2781 87.283 23.3281 87.283C23.5523 87.2828 23.7745 87.2414 23.9836 87.161C27.9562 85.6378 39.2436 81.7038 43.9113 81.7038H43.9737C44.0517 81.7041 44.1295 81.6993 44.2068 81.6894C44.3663 81.6695 44.5268 81.6598 44.6875 81.6604C44.9633 81.6596 45.2383 81.6894 45.5075 81.7493L68.3819 86.8878C70.4192 87.3451 71.7718 89.3173 71.3993 91.2833C71.3069 91.7813 71.1137 92.2555 70.8315 92.677C70.5492 93.0986 70.1838 93.4587 69.7574 93.7356C69.1442 94.1401 68.4248 94.356 67.6889 94.3564C67.4046 94.3554 67.1213 94.3235 66.844 94.2612L58.3577 92.3552L48.9932 90.2217C48.6247 90.1365 48.2476 90.0934 47.8694 90.0933C46.7289 90.0948 45.6226 90.4805 44.7307 91.1874C43.8388 91.8943 43.2141 92.8807 42.9582 93.986C42.6628 95.2825 42.8968 96.6427 43.6088 97.7679C44.3208 98.893 45.4528 99.6913 46.7561 99.9874L73.9964 106.009C74.3561 106.087 74.7232 106.124 75.091 106.121H75.2284C75.7121 106.123 76.1931 106.05 76.6539 105.904C76.6914 105.893 76.7282 105.88 76.7642 105.865L105.859 94.0687C106.171 93.9559 106.5 93.8978 106.833 93.897C107.261 93.8977 107.683 93.9946 108.069 94.1805C108.417 94.3444 108.728 94.5773 108.982 94.8648C109.236 95.1523 109.429 95.4885 109.548 95.8526C110.027 97.2867 109.209 98.9009 107.723 99.4493C107.665 99.4721 107.609 99.4969 107.551 99.5238L77.8109 114.163C77.0999 114.445 76.3433 114.595 75.578 114.608C69.3183 114.705 44.5065 114.995 36.3177 114.995C34.9484 114.995 34.0411 114.995 33.7664 114.968C31.985 114.691 13.5973 108.888 2.38687 105.283C2.20685 105.224 2.01863 105.194 1.82917 105.194C1.44488 105.194 1.07054 105.316 0.759862 105.541C0.449183 105.765 0.218121 106.082 0.099843 106.446C0.0262013 106.672 -0.00195156 106.91 0.0169787 107.147C0.0359089 107.383 0.101577 107.614 0.210193 107.825C0.31881 108.037 0.468274 108.225 0.650019 108.379C0.831765 108.533 1.04222 108.649 1.26939 108.722C8.31152 110.986 31.444 118.389 33.423 118.567C33.7248 118.594 34.8797 118.606 36.6236 118.606C45.78 118.606 71.2204 118.289 75.6342 118.221C76.8733 118.201 78.0978 117.951 79.2447 117.485L79.3613 117.431L109.086 102.802C110.66 102.214 111.945 101.044 112.674 99.5373C113.402 98.0303 113.518 96.302 112.997 94.7124C112.724 93.8874 112.286 93.126 111.709 92.4744C111.132 91.8227 110.428 91.2943 109.64 90.9211C108.765 90.5021 107.808 90.2836 106.837 90.2816C106.062 90.284 105.294 90.4242 104.569 90.6955L104.516 90.7162L75.4781 102.485C75.3949 102.499 75.3107 102.507 75.2263 102.508H75.1244C75.015 102.511 74.9055 102.503 74.7976 102.485L47.5551 96.4652C47.1922 96.3818 46.8774 96.1588 46.6796 95.8449C46.4818 95.5311 46.4172 95.1521 46.5001 94.791C46.572 94.4828 46.7467 94.2079 46.9957 94.011C47.2447 93.8141 47.5533 93.7068 47.8715 93.7066C47.9758 93.7061 48.0799 93.718 48.1815 93.7418L57.5586 95.8774L66.0491 97.7834C66.5953 97.9072 67.1537 97.9697 67.7139 97.9697C69.1557 97.9687 70.5654 97.5462 71.7677 96.7549C72.6033 96.2127 73.3196 95.5074 73.873 94.6818C74.4263 93.8561 74.8053 92.9273 74.987 91.9517C75.7195 88.0963 73.1141 84.243 69.1997 83.3614L46.3253 78.223C45.7941 78.103 45.251 78.0426 44.7063 78.043L44.6854 78.045Z" fill="#A5C6FA"/>
<path d="M65.531 76.8507C63.4668 76.8519 61.4386 76.3131 59.65 75.2883L36.4572 61.9735C34.6715 60.9442 33.1886 59.4669 32.1567 57.6894C31.1247 55.9118 30.5798 53.8961 30.5763 51.8435V25.2119C30.5795 23.1596 31.1243 21.1441 32.1564 19.3668C33.1884 17.5895 34.6714 16.1127 36.4572 15.084L59.65 1.76716C61.4392 0.743992 63.4671 0.205924 65.531 0.206788C67.5948 0.206408 69.6226 0.744443 71.4119 1.76716L94.6026 15.084C96.3883 16.1129 97.8712 17.5897 98.9032 19.367C99.9352 21.1442 100.48 23.1596 100.484 25.2119V51.8435C100.48 53.8961 99.9351 55.9118 98.9032 57.6894C97.8712 59.4669 96.3883 60.9442 94.6026 61.9735L71.4119 75.2883C69.6231 76.3125 67.5951 76.8513 65.531 76.8507V76.8507ZM65.531 3.40412C64.0316 3.40377 62.5584 3.79481 61.2587 4.53817L38.0658 17.855C36.7687 18.6024 35.6915 19.6752 34.9418 20.9661C34.1921 22.2571 33.7962 23.7211 33.7935 25.2119V51.8435C33.796 53.3346 34.1918 54.799 34.9415 56.0903C35.6912 57.3817 36.7686 58.4548 38.0658 59.2025L61.2587 72.5173C62.558 73.2616 64.0315 73.6527 65.531 73.6514C67.0304 73.6522 68.5037 73.2611 69.8033 72.5173L92.994 59.2108C94.2913 58.4631 95.3686 57.39 96.1183 56.0986C96.868 54.8073 97.2638 53.3429 97.2663 51.8518V25.2119C97.2637 23.7211 96.8677 22.2571 96.118 20.9661C95.3683 19.6752 94.2911 18.6024 92.994 17.855L69.8033 4.53817C68.5033 3.79535 67.0303 3.40435 65.531 3.40412V3.40412Z" fill="#A5C6FA"/>
<path d="M65.5309 0.413893C67.5584 0.412698 69.5506 0.941553 71.3078 1.94738L94.4985 15.2622C96.2529 16.2728 97.7098 17.7236 98.7235 19.4697C99.7373 21.2158 100.272 23.1959 100.275 25.2121V51.8437C100.272 53.8599 99.7373 55.84 98.7235 57.5861C97.7098 59.3321 96.2529 60.783 94.4985 61.7936L71.3078 75.1084C69.5507 76.1149 67.5586 76.6444 65.5309 76.644C63.5032 76.6444 61.5111 76.1149 59.754 75.1084L36.5612 61.7936C34.807 60.7828 33.3502 59.3319 32.3365 57.5859C31.3228 55.8399 30.7875 53.8599 30.7843 51.8437V25.2121C30.788 23.196 31.3233 21.2162 32.337 19.4702C33.3507 17.7243 34.8073 16.2733 36.5612 15.2622L59.754 1.94738C61.5112 0.941553 63.5034 0.412698 65.5309 0.413893ZM65.5309 73.8585C67.0646 73.8579 68.5713 73.4576 69.901 72.6975L93.0918 59.3807C94.4195 58.6143 95.5218 57.5149 96.2886 56.1924C97.0555 54.8698 97.46 53.3704 97.4619 51.8437V25.2121C97.4598 23.6855 97.0552 22.1861 96.2883 20.8636C95.5215 19.5411 94.4193 18.4417 93.0918 17.6752L69.9073 4.37069C68.5781 3.60907 67.0712 3.20798 65.5372 3.20764C64.0031 3.20769 62.4961 3.6088 61.167 4.37069L37.9742 17.6855C36.6466 18.4521 35.5444 19.5515 34.7776 20.874C34.0108 22.1965 33.6061 23.6958 33.6041 25.2224V51.8437C33.6059 53.3704 34.0105 54.8698 34.7773 56.1924C35.5442 57.5149 36.6465 58.6143 37.9742 59.3807L61.167 72.6975C62.4967 73.4576 64.0035 73.8579 65.5372 73.8585H65.5309ZM65.5372 4.63962e-06C63.4365 -0.00183991 61.3723 0.546343 59.5522 1.58937L36.3593 14.9041C34.542 15.9514 33.0329 17.4545 31.9826 19.2633C30.9324 21.0721 30.3778 23.1234 30.3743 25.2121V51.8437C30.3778 53.9324 30.9324 55.9836 31.9826 57.7925C33.0329 59.6013 34.542 61.1044 36.3593 62.1516L59.5522 75.4685C61.3723 76.5116 63.4365 77.0597 65.5372 77.0578C67.6378 77.0594 69.7019 76.5113 71.5221 75.4685L94.7129 62.1516C96.5302 61.1044 98.0393 59.6013 99.0895 57.7925C100.14 55.9836 100.694 53.9324 100.698 51.8437V25.2121C100.693 23.1222 100.137 21.0701 99.0841 19.2612C98.0316 17.4523 96.52 15.9498 94.7004 14.9041L71.5096 1.58937C69.6894 0.546615 67.6253 -0.00154796 65.5247 4.63962e-06H65.5372ZM65.5372 73.4446C64.0762 73.4452 62.6407 73.0633 61.3751 72.3374L38.1823 59.0227C36.9178 58.2926 35.868 57.2454 35.1377 55.9857C34.4074 54.726 34.022 53.2978 34.0203 51.8437V25.2121C34.0225 23.7581 34.408 22.3301 35.1382 21.0704C35.8685 19.8108 36.9181 18.7636 38.1823 18.0332L61.3751 4.71835C62.6407 3.99247 64.0762 3.61066 65.5372 3.61123C66.9982 3.61066 68.4336 3.99247 69.6991 4.71835L92.8899 18.029C94.1544 18.7591 95.2042 19.8063 95.9345 21.066C96.6648 22.3257 97.0501 23.7539 97.0519 25.2079V51.8437C97.0506 53.2979 96.6654 54.7262 95.9351 55.986C95.2047 57.2458 94.1547 58.2929 92.8899 59.0227L69.6991 72.3374C68.4336 73.0633 66.9982 73.4452 65.5372 73.4446V73.4446Z" fill="#A5C6FA"/>
<path d="M54.8596 57.9257C54.5797 57.9267 54.3059 57.844 54.074 57.6883C53.842 57.5325 53.6625 57.3109 53.5589 57.0524L44.2423 34.0319V48.34C44.2423 48.7096 44.0947 49.064 43.8322 49.3256C43.5696 49.5871 43.2134 49.7343 42.8417 49.7348C42.4698 49.7348 42.113 49.5878 41.85 49.3263C41.5869 49.0647 41.4391 48.7099 41.4391 48.34V26.8344C41.4397 26.5108 41.553 26.1975 41.7598 25.9477C41.9666 25.6979 42.2541 25.5271 42.5733 25.4644C42.6618 25.4479 42.7517 25.4396 42.8417 25.4396C43.1191 25.4401 43.3901 25.5228 43.6199 25.6773C43.8498 25.8317 44.028 26.0509 44.132 26.3066L53.4486 49.3271V19.2705C53.4492 18.9008 53.5971 18.5463 53.8601 18.2849C54.123 18.0234 54.4794 17.8763 54.8512 17.8757C55.2231 17.8763 55.5795 18.0234 55.8424 18.2849C56.1053 18.5463 56.2533 18.9008 56.2538 19.2705V56.535C56.2531 56.8586 56.1394 57.1719 55.9321 57.4214C55.7249 57.6709 55.437 57.841 55.1176 57.9029C55.0326 57.9192 54.9461 57.9268 54.8596 57.9257Z" fill="#A76ACF"/>
<path d="M63.1794 64.1775C62.8078 64.177 62.4516 64.0298 62.189 63.7683C61.9264 63.5067 61.7789 63.1523 61.7789 62.7827V12.6712C61.7793 12.4304 61.8421 12.1938 61.9613 11.9842C62.0805 11.7747 62.2521 11.5993 62.4594 11.475C62.6759 11.3418 62.9249 11.2702 63.1794 11.2681C63.4094 11.2689 63.6357 11.325 63.8391 11.4316L74.6603 16.9238C74.9871 17.0988 75.231 17.3954 75.3386 17.7487C75.4462 18.1019 75.4088 18.4832 75.2347 18.8091C75.1136 19.0332 74.9333 19.2202 74.7133 19.35C74.4933 19.4798 74.2419 19.5475 73.9861 19.5458C73.7561 19.5457 73.5296 19.4896 73.3264 19.3823L64.5737 14.9951V62.7744C64.5748 62.9576 64.5396 63.1392 64.4701 63.3088C64.4006 63.4784 64.2983 63.6328 64.1688 63.7631C64.0393 63.8934 63.8853 63.9971 63.7155 64.0682C63.5458 64.1393 63.3636 64.1764 63.1794 64.1775Z" fill="#A76ACF"/>
<path d="M63.1794 11.4835C63.3777 11.4836 63.5729 11.5326 63.7475 11.6263L74.5562 17.1123C74.8353 17.2607 75.0438 17.5132 75.1359 17.8143C75.2279 18.1154 75.1961 18.4405 75.0474 18.7182C74.9449 18.9069 74.7927 19.0642 74.6073 19.1736C74.4218 19.2829 74.21 19.3401 73.9944 19.3391C73.7952 19.3387 73.5992 19.2888 73.4242 19.1942L64.9774 14.9622L64.3739 14.66V62.7746C64.3733 63.0895 64.2473 63.3913 64.0234 63.6139C63.7995 63.8366 63.496 63.9619 63.1794 63.9625C62.863 63.9619 62.5597 63.8365 62.3361 63.6138C62.1126 63.3911 61.987 63.0893 61.987 62.7746V12.6713C61.9871 12.4664 62.0404 12.265 62.1418 12.0867C62.2431 11.9083 62.3891 11.759 62.5655 11.6531C62.7537 11.5399 62.9699 11.4812 63.1898 11.4835H63.1794ZM63.1898 11.0696C62.8967 11.0689 62.609 11.1476 62.3574 11.2972C62.1191 11.4398 61.922 11.6413 61.7852 11.8821C61.6485 12.1229 61.5768 12.3948 61.577 12.6713V62.7829C61.5768 62.9931 61.6181 63.2014 61.6989 63.3957C61.7796 63.59 61.898 63.7666 62.0474 63.9154C62.1968 64.0641 62.3743 64.1821 62.5696 64.2627C62.7649 64.3432 62.9742 64.3846 63.1856 64.3846C63.6128 64.3846 64.0225 64.2159 64.3246 63.9155C64.6266 63.6151 64.7963 63.2077 64.7963 62.7829V15.3388L73.2431 19.5729C73.4762 19.6968 73.7364 19.7615 74.0006 19.7612C74.2925 19.7616 74.5789 19.6831 74.8293 19.534C75.0797 19.3849 75.2845 19.1708 75.422 18.9148C75.623 18.5402 75.6662 18.1015 75.5421 17.6952C75.418 17.2889 75.1368 16.9483 74.7602 16.7481L63.9389 11.2579C63.7059 11.134 63.4457 11.0693 63.1815 11.0696H63.1898Z" fill="#A76ACF"/>
<path d="M63.1794 39.9174C62.8078 39.9169 62.4516 39.7697 62.189 39.5082C61.9264 39.2467 61.7789 38.8922 61.7789 38.5226C61.7795 38.1534 61.9272 37.7995 62.1897 37.5384C62.4523 37.2773 62.8082 37.1304 63.1794 37.1299H74.6042C74.9758 37.1299 75.3323 37.2765 75.5952 37.5377C75.8582 37.7988 76.0062 38.153 76.0068 38.5226C76.0068 38.8925 75.859 39.2473 75.596 39.5089C75.3329 39.7705 74.9762 39.9174 74.6042 39.9174H63.1794Z" fill="#A76ACF"/>
<path d="M74.6041 37.337C74.9206 37.337 75.2241 37.4619 75.448 37.6842C75.672 37.9065 75.7981 38.2081 75.7986 38.5228C75.7986 38.8378 75.6728 39.14 75.4488 39.3627C75.2248 39.5855 74.9209 39.7106 74.6041 39.7106H63.1794C62.863 39.7101 62.5597 39.5847 62.3361 39.362C62.1126 39.1393 61.987 38.8375 61.987 38.5228C61.9876 38.2084 62.1133 37.9072 62.3369 37.6849C62.5604 37.4626 62.8633 37.3375 63.1794 37.337H74.6041V37.337ZM74.6041 36.9231H63.1794C62.7528 36.9231 62.3436 37.0916 62.0419 37.3916C61.7403 37.6916 61.5708 38.0985 61.5708 38.5228C61.5705 38.733 61.6119 38.9413 61.6926 39.1356C61.7734 39.3299 61.8918 39.5065 62.0412 39.6553C62.1906 39.804 62.368 39.922 62.5633 40.0026C62.7586 40.0831 62.968 40.1245 63.1794 40.1245H74.6041C74.8157 40.1248 75.0253 40.0836 75.2209 40.0032C75.4164 39.9228 75.594 39.8048 75.7437 39.656C75.8933 39.5072 76.0119 39.3305 76.0928 39.136C76.1736 38.9416 76.2151 38.7332 76.2148 38.5228C76.2148 38.3125 76.1732 38.1043 76.0922 37.9101C76.0112 37.7159 75.8925 37.5395 75.7429 37.3909C75.5933 37.2423 75.4158 37.1245 75.2204 37.0443C75.025 36.964 74.8156 36.9228 74.6041 36.9231V36.9231Z" fill="#A76ACF"/>
<path d="M88.5968 27.447C88.3796 27.4466 88.1656 27.3948 87.9725 27.296L79.4258 22.8798C79.0931 22.7134 78.8404 22.4224 78.7233 22.0708C78.6062 21.7192 78.6344 21.3358 78.8015 21.0048C78.9178 20.7748 79.0962 20.5816 79.3167 20.4467C79.5373 20.3118 79.7912 20.2407 80.0501 20.2412C80.2673 20.2414 80.4814 20.2932 80.6744 20.3923L89.2211 24.8085C89.5539 24.9749 89.8065 25.2658 89.9236 25.6174C90.0407 25.969 90.0126 26.3524 89.8454 26.6834C89.7291 26.9134 89.5507 27.1067 89.3302 27.2416C89.1097 27.3764 88.8557 27.4476 88.5968 27.447Z" fill="#A76ACF"/>
<path d="M80.0501 20.4481C80.2359 20.4476 80.4192 20.4909 80.585 20.5743L89.1379 24.9946C89.42 25.1372 89.6337 25.3854 89.7321 25.6845C89.8304 25.9837 89.8053 26.3094 89.6623 26.5902C89.563 26.7863 89.4106 26.9509 89.2224 27.0656C89.0342 27.1804 88.8176 27.2408 88.5968 27.24C88.4111 27.2404 88.2278 27.1972 88.062 27.1137L79.5091 22.6934C79.2269 22.5508 79.0132 22.3027 78.9149 22.0035C78.8166 21.7044 78.8417 21.3787 78.9847 21.0979C79.084 20.9019 79.2363 20.7372 79.4245 20.6224C79.6127 20.5076 79.8294 20.4473 80.0501 20.4481V20.4481ZM80.0501 20.0342C79.7528 20.0339 79.4612 20.1155 79.2078 20.2701C78.9543 20.4246 78.7488 20.6459 78.6142 20.9096C78.5184 21.097 78.4607 21.3015 78.4444 21.5112C78.4281 21.7209 78.4535 21.9317 78.5192 22.1316C78.5849 22.3315 78.6896 22.5165 78.8274 22.6762C78.9651 22.8358 79.1331 22.9668 79.3218 23.0618L87.8685 27.48C88.0941 27.5942 88.3437 27.6537 88.5968 27.6539C88.8942 27.6542 89.1857 27.5725 89.4392 27.418C89.6927 27.2635 89.8981 27.0421 90.0327 26.7785C90.1286 26.591 90.1863 26.3866 90.2026 26.1769C90.2189 25.9672 90.1935 25.7564 90.1278 25.5565C90.062 25.3566 89.9573 25.1715 89.8196 25.0119C89.6819 24.8523 89.5139 24.7212 89.3252 24.6263L80.7785 20.208C80.5528 20.0939 80.3033 20.0343 80.0501 20.0342V20.0342Z" fill="#A76ACF"/>
<path d="M83.4089 55.1506C83.0374 55.1495 82.6815 55.0022 82.4191 54.7408C82.1566 54.4794 82.0089 54.1252 82.0084 53.7558V23.5171C82.0084 23.1476 82.1559 22.7931 82.4184 22.5316C82.681 22.27 83.0373 22.1229 83.4089 22.1223C83.7809 22.1223 84.1376 22.2693 84.4007 22.5308C84.6637 22.7924 84.8115 23.1472 84.8115 23.5171V53.7558C84.8109 54.1256 84.663 54.4801 84.4001 54.7415C84.1371 55.003 83.7807 55.1501 83.4089 55.1506Z" fill="#A76ACF"/>
<path d="M83.4089 22.3292C83.7257 22.3292 84.0295 22.4543 84.2535 22.6771C84.4776 22.8998 84.6034 23.202 84.6034 23.517V53.7557C84.6028 54.0706 84.4768 54.3724 84.2529 54.5951C84.029 54.8177 83.7255 54.943 83.4089 54.9436C83.0925 54.943 82.7892 54.8177 82.5656 54.595C82.342 54.3723 82.2165 54.0704 82.2165 53.7557V23.517C82.2165 23.2024 82.342 22.9005 82.5656 22.6778C82.7892 22.4551 83.0925 22.3297 83.4089 22.3292V22.3292ZM83.4089 21.9153C83.1975 21.9153 82.9881 21.9567 82.7928 22.0372C82.5975 22.1178 82.4201 22.2358 82.2707 22.3845C82.1213 22.5333 82.0029 22.7099 81.9222 22.9042C81.8414 23.0986 81.8 23.3068 81.8003 23.517V53.7557C81.8003 54.1802 81.9697 54.5873 82.2713 54.8876C82.5729 55.1879 82.9821 55.3569 83.4089 55.3575C83.8361 55.3575 84.2458 55.1887 84.5478 54.8884C84.8499 54.588 85.0196 54.1805 85.0196 53.7557V23.517C85.0199 23.3066 84.9784 23.0982 84.8976 22.9037C84.8167 22.7093 84.6981 22.5326 84.5485 22.3838C84.3988 22.235 84.2212 22.117 84.0256 22.0366C83.8301 21.9562 83.6205 21.915 83.4089 21.9153V21.9153Z" fill="#A76ACF"/>
<path d="M89.0339 80.2467C88.6068 80.2462 88.1975 80.0773 87.8955 79.777C87.5936 79.4767 87.4237 79.0696 87.4232 78.645V78.0428C87.4237 77.6183 87.5936 77.2115 87.8957 76.9115C88.1977 76.6116 88.607 76.4431 89.0339 76.4431C89.4603 76.4437 89.8692 76.6123 90.1707 76.9122C90.4723 77.2121 90.6419 77.6187 90.6425 78.0428V78.6429C90.6427 78.8533 90.6014 79.0616 90.5207 79.2561C90.44 79.4505 90.3216 79.6272 90.1722 79.7762C90.0228 79.9251 89.8454 80.0433 89.6501 80.124C89.4548 80.2048 89.2454 80.2465 89.0339 80.2467V80.2467Z" fill="#A5C6FA"/>
<path d="M89.0339 76.6523C89.4051 76.6529 89.761 76.7998 90.0236 77.0608C90.2861 77.3219 90.4338 77.6758 90.4344 78.045V78.6452C90.4344 79.0147 90.2869 79.3692 90.0243 79.6307C89.7617 79.8922 89.4055 80.0394 89.0339 80.04C88.6619 80.04 88.3051 79.893 88.0421 79.6314C87.779 79.3699 87.6313 79.0151 87.6313 78.6452V78.043C87.6318 77.6734 87.7798 77.3191 88.0428 77.058C88.3058 76.7969 88.6622 76.6502 89.0339 76.6502V76.6523ZM89.0339 76.2363C88.7946 76.2353 88.5574 76.2812 88.3361 76.3715C88.1147 76.4618 87.9134 76.5947 87.7438 76.7626C87.5743 76.9304 87.4397 77.13 87.3479 77.3497C87.2561 77.5694 87.2088 77.805 87.2088 78.043V78.6431C87.2088 79.1228 87.4004 79.5828 87.7415 79.922C88.0826 80.2612 88.5452 80.4518 89.0276 80.4518C89.2664 80.4518 89.5028 80.405 89.7233 80.3141C89.9439 80.2232 90.1442 80.0899 90.313 79.9219C90.4817 79.754 90.6155 79.5545 90.7066 79.3351C90.7978 79.1157 90.8446 78.8805 90.8443 78.6431V78.043C90.8443 77.5638 90.6529 77.1043 90.3122 76.7655C89.9715 76.4267 89.5094 76.2363 89.0276 76.2363H89.0339Z" fill="#A5C6FA"/>
<path d="M89.0339 90.1573C88.607 90.1573 88.1977 89.9888 87.8957 89.6889C87.5936 89.389 87.4237 88.9821 87.4232 88.5576V87.9575C87.4237 87.5328 87.5936 87.1257 87.8955 86.8255C88.1975 86.5252 88.6068 86.3563 89.0339 86.3557C89.4607 86.3563 89.8698 86.5253 90.1714 86.8256C90.4731 87.1259 90.6425 87.533 90.6425 87.9575V88.5576C90.6419 88.9817 90.4723 89.3883 90.1707 89.6881C89.8692 89.988 89.4603 90.1568 89.0339 90.1573V90.1573Z" fill="#A5C6FA"/>
<path d="M89.0338 86.5626C89.4054 86.5631 89.7616 86.7103 90.0242 86.9719C90.2868 87.2334 90.4343 87.5878 90.4343 87.9574V88.5575C90.4337 88.9267 90.286 89.2807 90.0235 89.5417C89.7609 89.8028 89.405 89.9497 89.0338 89.9503C88.6621 89.9503 88.3057 89.8036 88.0427 89.5424C87.7797 89.2813 87.6317 88.9271 87.6312 88.5575V87.9574C87.6312 87.5874 87.7789 87.2327 88.042 86.9711C88.305 86.7095 88.6618 86.5626 89.0338 86.5626ZM89.0338 86.1487C88.5514 86.1487 88.0888 86.3393 87.7477 86.6785C87.4066 87.0177 87.215 87.4777 87.215 87.9574V88.5575C87.215 88.795 87.262 89.03 87.3534 89.2494C87.4449 89.4687 87.5789 89.6679 87.7478 89.8357C87.9167 90.0035 88.1172 90.1366 88.3379 90.2272C88.5586 90.3179 88.795 90.3644 89.0338 90.3641C89.5156 90.3641 89.9777 90.1738 90.3184 89.835C90.6591 89.4962 90.8505 89.0367 90.8505 88.5575V87.9574C90.8508 87.7199 90.804 87.4848 90.7128 87.2654C90.6216 87.046 90.4878 86.8466 90.3191 86.6786C90.1504 86.5106 89.95 86.3773 89.7295 86.2864C89.5089 86.1955 89.2725 86.1487 89.0338 86.1487V86.1487Z" fill="#A5C6FA"/>
<path d="M83.7459 84.901C83.3195 84.9005 82.9106 84.7318 82.6091 84.4319C82.3075 84.132 82.1379 83.7254 82.1373 83.3013C82.1379 82.8772 82.3075 82.4707 82.6091 82.1708C82.9106 81.8709 83.3195 81.7022 83.7459 81.7017H84.3515C84.778 81.7022 85.1868 81.8709 85.4884 82.1708C85.7899 82.4707 85.9596 82.8772 85.9601 83.3013C85.9596 83.7254 85.7899 84.132 85.4884 84.4319C85.1868 84.7318 84.778 84.9005 84.3515 84.901H83.7459Z" fill="#A5C6FA"/>
<path d="M84.3516 81.9085C84.7229 81.9091 85.0788 82.056 85.3413 82.317C85.6038 82.5781 85.7516 82.932 85.7521 83.3012C85.7516 83.6705 85.6038 84.0244 85.3413 84.2855C85.0788 84.5466 84.7229 84.6934 84.3516 84.694H83.746C83.3748 84.6934 83.0189 84.5466 82.7563 84.2855C82.4938 84.0244 82.3461 83.6705 82.3455 83.3012C82.3461 82.932 82.4938 82.5781 82.7563 82.317C83.0189 82.056 83.3748 81.9091 83.746 81.9085H84.3516ZM84.3516 81.4946H83.746C83.2642 81.4946 82.8021 81.685 82.4614 82.0238C82.1207 82.3626 81.9293 82.8221 81.9293 83.3012C81.9293 83.7804 82.1207 84.2399 82.4614 84.5787C82.8021 84.9175 83.2642 85.1079 83.746 85.1079H84.3516C84.8334 85.1079 85.2955 84.9175 85.6362 84.5787C85.9769 84.2399 86.1683 83.7804 86.1683 83.3012C86.1683 82.8221 85.9769 82.3626 85.6362 82.0238C85.2955 81.685 84.8334 81.4946 84.3516 81.4946Z" fill="#A5C6FA"/>
<path d="M93.714 84.901C93.2876 84.9005 92.8787 84.7318 92.5772 84.4319C92.2756 84.132 92.106 83.7254 92.1054 83.3013C92.106 82.8772 92.2756 82.4707 92.5772 82.1708C92.8787 81.8709 93.2876 81.7022 93.714 81.7017H94.3196C94.7461 81.7022 95.1549 81.8709 95.4565 82.1708C95.758 82.4707 95.9277 82.8772 95.9282 83.3013C95.9277 83.7254 95.758 84.132 95.4565 84.4319C95.1549 84.7318 94.7461 84.9005 94.3196 84.901H93.714Z" fill="#A5C6FA"/>
<path d="M94.3196 81.9085C94.6909 81.9091 95.0468 82.056 95.3093 82.317C95.5719 82.5781 95.7196 82.932 95.7202 83.3012C95.7196 83.6705 95.5719 84.0244 95.3093 84.2855C95.0468 84.5466 94.6909 84.6934 94.3196 84.694H93.7141C93.3428 84.6934 92.9869 84.5466 92.7244 84.2855C92.4618 84.0244 92.3141 83.6705 92.3135 83.3012C92.3141 82.932 92.4618 82.5781 92.7244 82.317C92.9869 82.056 93.3428 81.9091 93.7141 81.9085H94.3196ZM94.3196 81.4946H93.7141C93.2322 81.4946 92.7701 81.685 92.4294 82.0238C92.0887 82.3626 91.8973 82.8221 91.8973 83.3012C91.8973 83.7804 92.0887 84.2399 92.4294 84.5787C92.7701 84.9175 93.2322 85.1079 93.7141 85.1079H94.3196C94.8015 85.1079 95.2635 84.9175 95.6042 84.5787C95.9449 84.2399 96.1364 83.7804 96.1364 83.3012C96.1364 82.8221 95.9449 82.3626 95.6042 82.0238C95.2635 81.685 94.8015 81.4946 94.3196 81.4946Z" fill="#A5C6FA"/>
<path d="M13.6846 13.8362C13.2593 13.8335 12.8522 13.6635 12.5524 13.3634C12.2526 13.0633 12.0843 12.6575 12.0844 12.2345V11.6343C12.0849 11.2102 12.2546 10.8037 12.5561 10.5038C12.8577 10.2039 13.2665 10.0352 13.693 10.0347C14.1194 10.0352 14.5283 10.2039 14.8298 10.5038C15.1314 10.8037 15.301 11.2102 15.3016 11.6343V12.2345C15.3016 12.4453 15.2597 12.6541 15.1784 12.8489C15.097 13.0436 14.9778 13.2205 14.8276 13.3693C14.6774 13.5181 14.4991 13.6359 14.3029 13.7161C14.1068 13.7962 13.8967 13.837 13.6846 13.8362V13.8362Z" fill="#A5C6FA"/>
<path d="M13.6846 10.2415C14.0559 10.2421 14.4118 10.3889 14.6743 10.65C14.9368 10.9111 15.0846 11.265 15.0851 11.6343V12.2344C15.0851 12.6039 14.9377 12.9584 14.6751 13.2199C14.4125 13.4815 14.0562 13.6286 13.6846 13.6292C13.3144 13.6264 12.9603 13.4783 12.6995 13.217C12.4387 12.9557 12.2924 12.6025 12.2924 12.2344V11.6343C12.293 11.265 12.4407 10.9111 12.7032 10.65C12.9658 10.3889 13.3217 10.2421 13.6929 10.2415H13.6846ZM13.6929 9.82764C13.2111 9.82764 12.749 10.018 12.4083 10.3568C12.0676 10.6956 11.8762 11.1551 11.8762 11.6343V12.2344C11.8759 12.4718 11.9227 12.707 12.0139 12.9264C12.1051 13.1458 12.2389 13.3452 12.4076 13.5132C12.5763 13.6812 12.7767 13.8144 12.9973 13.9053C13.2178 13.9963 13.4542 14.0431 13.6929 14.0431C13.9317 14.0431 14.1681 13.9963 14.3887 13.9053C14.6092 13.8144 14.8095 13.6812 14.9783 13.5132C15.147 13.3452 15.2808 13.1458 15.372 12.9264C15.4631 12.707 15.5099 12.4718 15.5097 12.2344V11.6343C15.5097 11.1551 15.3183 10.6956 14.9776 10.3568C14.6369 10.018 14.1748 9.82764 13.6929 9.82764Z" fill="#A5C6FA"/>
<path d="M13.6846 23.7467C13.2581 23.7462 12.8493 23.5775 12.5478 23.2776C12.2462 22.9777 12.0765 22.5712 12.076 22.1471V21.5469C12.0765 21.1228 12.2462 20.7163 12.5478 20.4164C12.8493 20.1165 13.2581 19.9478 13.6846 19.9473C14.1111 19.9478 14.5199 20.1165 14.8215 20.4164C15.123 20.7163 15.2927 21.1228 15.2932 21.5469V22.1491C15.2921 22.5729 15.1222 22.9789 14.8207 23.2783C14.5192 23.5778 14.1107 23.7462 13.6846 23.7467V23.7467Z" fill="#A5C6FA"/>
<path d="M13.6846 20.1523C14.0559 20.1528 14.4118 20.2998 14.6743 20.5608C14.9368 20.8219 15.0846 21.1758 15.0851 21.545V22.1472C15.0846 22.5164 14.9368 22.8704 14.6743 23.1315C14.4118 23.3925 14.0559 23.5394 13.6846 23.5399C13.3133 23.5394 12.9574 23.3925 12.6949 23.1315C12.4324 22.8704 12.2846 22.5164 12.2841 22.1472V21.5471C12.2846 21.1779 12.4324 20.824 12.6949 20.5629C12.9574 20.3018 13.3133 20.1549 13.6846 20.1544V20.1523ZM13.6846 19.7405C13.2042 19.7427 12.7443 19.934 12.4054 20.2725C12.0665 20.6111 11.8762 21.0694 11.8762 21.5471V22.1493C11.8762 22.6284 12.0676 23.088 12.4083 23.4268C12.749 23.7656 13.2111 23.9559 13.6929 23.9559C14.1748 23.9559 14.6369 23.7656 14.9776 23.4268C15.3183 23.088 15.5097 22.6284 15.5097 22.1493V21.5471C15.5097 21.068 15.3183 20.6084 14.9776 20.2696C14.6369 19.9308 14.1748 19.7405 13.6929 19.7405H13.6846Z" fill="#A5C6FA"/>
<path d="M8.39896 18.4904C7.9725 18.4898 7.56363 18.3211 7.26208 18.0213C6.96052 17.7214 6.79089 17.3148 6.79034 16.8907C6.79089 16.4666 6.96052 16.06 7.26208 15.7601C7.56363 15.4602 7.9725 15.2916 8.39896 15.291H9.00243C9.42889 15.2916 9.83776 15.4602 10.1393 15.7601C10.4409 16.06 10.6105 16.4666 10.611 16.8907C10.6105 17.3148 10.4409 17.7214 10.1393 18.0213C9.83776 18.3211 9.42889 18.4898 9.00243 18.4904H8.39896Z" fill="#A5C6FA"/>
<path d="M9.00246 15.4979C9.37374 15.4984 9.72963 15.6453 9.99216 15.9064C10.2547 16.1675 10.4024 16.5214 10.403 16.8906C10.4024 17.2598 10.2547 17.6137 9.99216 17.8748C9.72963 18.1359 9.37374 18.2828 9.00246 18.2833H8.39899C8.02755 18.2833 7.67133 18.1366 7.40868 17.8754C7.14604 17.6142 6.99848 17.26 6.99848 16.8906C6.99848 16.5212 7.14604 16.167 7.40868 15.9058C7.67133 15.6446 8.02755 15.4979 8.39899 15.4979H9.00246ZM9.00246 15.084H8.39899C7.91717 15.084 7.45507 15.2743 7.11437 15.6131C6.77366 15.9519 6.58228 16.4115 6.58228 16.8906C6.58228 17.3698 6.77366 17.8293 7.11437 18.1681C7.45507 18.5069 7.91717 18.6972 8.39899 18.6972H9.00246C9.48429 18.6972 9.94639 18.5069 10.2871 18.1681C10.6278 17.8293 10.8192 17.3698 10.8192 16.8906C10.8192 16.4115 10.6278 15.9519 10.2871 15.6131C9.94639 15.2743 9.48429 15.084 9.00246 15.084V15.084Z" fill="#A5C6FA"/>
<path d="M18.3649 18.4904C17.9384 18.4898 17.5296 18.3211 17.2281 18.0213C16.9265 17.7214 16.7568 17.3148 16.7563 16.8907C16.7568 16.4666 16.9265 16.06 17.2281 15.7601C17.5296 15.4602 17.9384 15.2916 18.3649 15.291H18.9705C19.397 15.2916 19.8058 15.4602 20.1073 15.7601C20.4089 16.06 20.5786 16.4666 20.5791 16.8907C20.5786 17.3148 20.4089 17.7214 20.1073 18.0213C19.8058 18.3211 19.397 18.4898 18.9705 18.4904H18.3649Z" fill="#A5C6FA"/>
<path d="M18.9705 15.4979C19.3417 15.4984 19.6976 15.6453 19.9602 15.9064C20.2227 16.1675 20.3704 16.5214 20.371 16.8906C20.3704 17.2598 20.2227 17.6137 19.9602 17.8748C19.6976 18.1359 19.3417 18.2828 18.9705 18.2833H18.3649C17.9936 18.2828 17.6377 18.1359 17.3752 17.8748C17.1126 17.6137 16.9649 17.2598 16.9644 16.8906C16.9649 16.5214 17.1126 16.1675 17.3752 15.9064C17.6377 15.6453 17.9936 15.4984 18.3649 15.4979H18.9705ZM18.9705 15.084H18.3649C17.883 15.084 17.4209 15.2743 17.0802 15.6131C16.7395 15.9519 16.5482 16.4115 16.5482 16.8906C16.5482 17.3698 16.7395 17.8293 17.0802 18.1681C17.4209 18.5069 17.883 18.6972 18.3649 18.6972H18.9705C19.4523 18.6972 19.9144 18.5069 20.2551 18.1681C20.5958 17.8293 20.7872 17.3698 20.7872 16.8906C20.7872 16.4115 20.5958 15.9519 20.2551 15.6131C19.9144 15.2743 19.4523 15.084 18.9705 15.084Z" fill="#A5C6FA"/>
<path d="M109.448 6.39241C109.022 6.39186 108.612 6.22287 108.311 5.92254C108.009 5.62222 107.84 5.21512 107.84 4.79067V4.1905C107.84 3.76623 108.009 3.35937 108.311 3.05938C108.613 2.75938 109.022 2.59082 109.448 2.59082C109.875 2.59137 110.284 2.7601 110.585 3.05998C110.887 3.35986 111.057 3.7664 111.057 4.1905V4.79067C111.057 5.21512 110.888 5.62222 110.586 5.92254C110.284 6.22287 109.875 6.39186 109.448 6.39241V6.39241Z" fill="#A5C6FA"/>
<path d="M109.449 2.79792C109.82 2.79847 110.176 2.94539 110.438 3.20646C110.701 3.46753 110.849 3.82145 110.849 4.19065V4.79082C110.849 5.16039 110.702 5.51487 110.439 5.77638C110.176 6.0379 109.82 6.18508 109.449 6.18563C109.077 6.18508 108.721 6.0379 108.458 5.77638C108.196 5.51487 108.048 5.16039 108.048 4.79082V4.19065C108.049 3.82145 108.196 3.46753 108.459 3.20646C108.721 2.94539 109.077 2.79847 109.449 2.79792V2.79792ZM109.449 2.38403C108.967 2.38403 108.505 2.57441 108.164 2.91322C107.823 3.25202 107.632 3.71151 107.632 4.19065V4.79082C107.632 5.02825 107.678 5.26336 107.77 5.48279C107.861 5.70222 107.994 5.90164 108.163 6.06962C108.332 6.2376 108.532 6.37087 108.753 6.46179C108.973 6.55271 109.21 6.59951 109.449 6.59951C109.687 6.59951 109.924 6.55271 110.144 6.46179C110.365 6.37087 110.565 6.2376 110.734 6.06962C110.903 5.90164 111.036 5.70222 111.128 5.48279C111.219 5.26336 111.266 5.02825 111.265 4.79082V4.19065C111.265 3.71151 111.074 3.25202 110.733 2.91322C110.392 2.57441 109.93 2.38403 109.449 2.38403Z" fill="#A5C6FA"/>
<path d="M109.448 16.3031C109.022 16.3026 108.613 16.1339 108.312 15.834C108.01 15.5341 107.84 15.1275 107.84 14.7034V14.0971C107.84 13.6727 108.009 13.2656 108.311 12.9652C108.612 12.6649 109.022 12.4959 109.448 12.4954C109.875 12.4959 110.284 12.6649 110.586 12.9652C110.888 13.2656 111.057 13.6727 111.057 14.0971V14.6972C111.058 14.9077 111.016 15.1163 110.936 15.311C110.855 15.5057 110.737 15.6826 110.588 15.8318C110.438 15.9809 110.261 16.0994 110.065 16.1802C109.87 16.2611 109.66 16.3028 109.448 16.3031Z" fill="#A5C6FA"/>
<path d="M109.449 12.7084C109.82 12.709 110.176 12.8562 110.439 13.1177C110.702 13.3792 110.849 13.7337 110.849 14.1032V14.7034C110.849 15.0726 110.701 15.4265 110.438 15.6876C110.176 15.9486 109.82 16.0955 109.449 16.0961C109.077 16.0955 108.721 15.9486 108.459 15.6876C108.196 15.4265 108.049 15.0726 108.048 14.7034V14.097C108.048 13.7275 108.196 13.373 108.458 13.1115C108.721 12.8499 109.077 12.7028 109.449 12.7022V12.7084ZM109.449 12.2883C109.21 12.2883 108.973 12.3351 108.753 12.4261C108.532 12.517 108.332 12.6502 108.163 12.8182C107.994 12.9862 107.861 13.1856 107.77 13.405C107.678 13.6244 107.632 13.8596 107.632 14.097V14.6971C107.632 15.1763 107.823 15.6358 108.164 15.9746C108.505 16.3134 108.967 16.5038 109.449 16.5038C109.93 16.5038 110.392 16.3134 110.733 15.9746C111.074 15.6358 111.265 15.1763 111.265 14.6971V14.097C111.266 13.8596 111.219 13.6244 111.128 13.405C111.036 13.1856 110.903 12.9862 110.734 12.8182C110.565 12.6502 110.365 12.517 110.144 12.4261C109.924 12.3351 109.687 12.2883 109.449 12.2883V12.2883Z" fill="#A5C6FA"/>
<path d="M104.161 11.0468C103.734 11.0462 103.325 10.8775 103.024 10.5776C102.722 10.2777 102.553 9.87118 102.552 9.44709C102.553 9.023 102.722 8.6164 103.024 8.31652C103.325 8.01664 103.734 7.84796 104.161 7.84741H104.766C105.193 7.84796 105.602 8.01664 105.903 8.31652C106.205 8.6164 106.374 9.023 106.375 9.44709C106.374 9.87118 106.205 10.2777 105.903 10.5776C105.602 10.8775 105.193 11.0462 104.766 11.0468H104.161Z" fill="#A5C6FA"/>
<path d="M104.766 8.05427C105.137 8.05482 105.493 8.20173 105.756 8.4628C106.018 8.72387 106.166 9.07779 106.167 9.447C106.166 9.81621 106.018 10.1701 105.756 10.4312C105.493 10.6923 105.137 10.8392 104.766 10.8397H104.161C103.789 10.8392 103.433 10.6923 103.171 10.4312C102.908 10.1701 102.761 9.81621 102.76 9.447C102.761 9.07779 102.908 8.72387 103.171 8.4628C103.433 8.20173 103.789 8.05482 104.161 8.05427H104.766ZM104.766 7.64038H104.161C103.679 7.64038 103.217 7.83071 102.876 8.16951C102.535 8.50832 102.344 8.96785 102.344 9.447C102.344 9.92615 102.535 10.3857 102.876 10.7245C103.217 11.0633 103.679 11.2536 104.161 11.2536H104.766C105.248 11.2536 105.71 11.0633 106.051 10.7245C106.391 10.3857 106.583 9.92615 106.583 9.447C106.583 8.96785 106.391 8.50832 106.051 8.16951C105.71 7.83071 105.248 7.64038 104.766 7.64038Z" fill="#A5C6FA"/>
<path d="M114.129 11.0468C113.702 11.0462 113.293 10.8775 112.992 10.5776C112.69 10.2777 112.521 9.87118 112.52 9.44709C112.521 9.023 112.69 8.6164 112.992 8.31652C113.293 8.01664 113.702 7.84796 114.129 7.84741H114.734C115.161 7.84796 115.57 8.01664 115.871 8.31652C116.173 8.6164 116.342 9.023 116.343 9.44709C116.342 9.87118 116.173 10.2777 115.871 10.5776C115.57 10.8775 115.161 11.0462 114.734 11.0468H114.129Z" fill="#A5C6FA"/>
<path d="M114.734 8.05427C115.106 8.05482 115.461 8.20173 115.724 8.4628C115.987 8.72387 116.134 9.07779 116.135 9.447C116.134 9.81621 115.987 10.1701 115.724 10.4312C115.461 10.6923 115.106 10.8392 114.734 10.8397H114.129C113.757 10.8392 113.402 10.6923 113.139 10.4312C112.877 10.1701 112.729 9.81621 112.728 9.447C112.729 9.07779 112.877 8.72387 113.139 8.4628C113.402 8.20173 113.757 8.05482 114.129 8.05427H114.734ZM114.734 7.64038H114.129C113.647 7.64038 113.185 7.83071 112.844 8.16951C112.503 8.50832 112.312 8.96785 112.312 9.447C112.312 9.92615 112.503 10.3857 112.844 10.7245C113.185 11.0633 113.647 11.2536 114.129 11.2536H114.734C115.216 11.2536 115.678 11.0633 116.019 10.7245C116.36 10.3857 116.551 9.92615 116.551 9.447C116.551 8.96785 116.36 8.50832 116.019 8.16951C115.678 7.83071 115.216 7.64038 114.734 7.64038Z" fill="#A5C6FA"/>
</g>
<defs>
<clipPath id="clip0_39_997">
<rect width="116.551" height="118.625" fill="white"/>
</clipPath>
</defs>
</svg>
