<svg width="104" height="119" viewBox="0 0 104 119" fill="none" xmlns="http://www.w3.org/2000/svg">
<g clip-path="url(#clip0_39_944)">
<path d="M89.5436 105.475L68.1134 105.371H67.748L67.6937 105.247L67.675 105.204L67.6457 105.142L67.6207 105.082L67.604 105.038C64.8229 98.3804 65.1444 87.8554 67.3555 83.9013C68.3807 82.1623 70.028 80.7173 71.9343 79.0446C75.0411 76.312 78.9078 72.9127 82.5826 66.4578C84.8792 62.2842 86.5036 62.1621 86.679 62.1621C86.7693 62.1614 86.8589 62.179 86.9421 62.2138C88.032 62.7459 88.6354 65.8988 87.0841 69.4596L86.6895 70.3891L86.6477 70.4884C84.7435 75.0222 83.0983 78.937 80.5928 83.3796C80.4687 83.5979 80.3899 83.8385 80.3608 84.0873C80.3318 84.3362 80.3532 84.5882 80.4237 84.8288C80.4918 85.0681 80.6071 85.2916 80.763 85.4864C80.9189 85.6811 81.1123 85.8432 81.3319 85.9632C81.614 86.1217 81.9326 86.2052 82.2568 86.2055C82.5976 86.2055 82.9323 86.115 83.226 85.9436C83.5197 85.7721 83.7618 85.5259 83.9271 85.2304C86.5308 80.5952 88.2971 76.3927 90.1679 71.9438L90.2034 71.8548L90.5855 70.9481C92.8425 65.7726 91.9802 60.4625 88.6229 58.8395C88.0173 58.5526 87.3543 58.4047 86.6832 58.4068C84.8479 58.4068 82.0668 59.4874 79.2356 64.636C75.895 70.5071 72.4395 73.5379 69.4016 76.2126L69.3829 76.2292L69.3536 76.2561C67.2073 78.1441 65.3553 79.7754 64.0232 82.0402C62.7475 84.3174 61.9353 88.0645 61.7934 92.3312C61.6472 96.7966 62.236 101.256 63.4511 104.887L63.4678 104.939C63.4678 104.957 63.4804 104.974 63.4846 104.991L63.5012 105.036L63.52 105.094L63.614 105.369H63.1024L61.3215 105.359C60.8145 105.357 60.3274 105.555 59.9664 105.908C59.788 106.084 59.6465 106.293 59.5501 106.524C59.4537 106.754 59.4043 107.002 59.4048 107.251V116.729C59.4059 117.23 59.6074 117.71 59.9651 118.065C60.3228 118.419 60.8075 118.618 61.3131 118.619H77.4672C77.9728 118.618 78.4576 118.419 78.8153 118.065C79.173 117.71 79.3744 117.23 79.3755 116.729C79.375 116.227 79.1738 115.746 78.816 115.391C78.4582 115.037 77.9732 114.837 77.4672 114.836H63.2215V109.129H63.6391H65.5996H65.9107H67.0841H67.3994L87.1926 109.224H87.6102V114.95H84.8625C84.357 114.951 83.8724 115.151 83.5151 115.506C83.1578 115.86 82.9568 116.341 82.9563 116.842C82.9568 117.344 83.1578 117.824 83.5151 118.179C83.8724 118.534 84.357 118.733 84.8625 118.735H89.5185C90.0245 118.734 90.5096 118.535 90.8673 118.18C91.2251 117.825 91.4263 117.344 91.4269 116.842V107.34C91.4193 106.847 91.2184 106.377 90.8668 106.029C90.5152 105.681 90.0405 105.482 89.5436 105.475V105.475Z" fill="#A5C6FA"/>
<path d="M99.9205 56.6178C96.7427 47.3702 92.8759 39.9506 89.8276 37.2532C88.27 35.8992 86.8378 35.2119 85.5704 35.2119C84.9682 35.2123 84.3771 35.3724 83.8583 35.6756C82.7162 36.3215 79.6825 38.0398 82.6056 52.8873C82.6848 53.3169 82.9127 53.7056 83.2501 53.9864C83.5874 54.2672 84.0129 54.4225 84.4534 54.4255C84.5811 54.4258 84.7085 54.4127 84.8334 54.3862C85.0804 54.3404 85.3158 54.2463 85.5258 54.1095C85.7359 53.9726 85.9164 53.7958 86.0569 53.5891C86.1995 53.3837 86.299 53.1519 86.3495 52.9076C86.4001 52.6633 86.4007 52.4114 86.3513 52.1669C84.9858 45.1882 85.0651 40.9692 85.5474 39.4745L85.6268 39.2302L85.704 38.9859L85.9295 39.1143L86.1529 39.2426C86.564 39.4869 86.9501 39.7705 87.3054 40.0893C89.9529 42.4349 93.3269 49.1113 96.3356 57.9511C99.0499 65.9545 100.574 73.1236 100.021 75.3822C99.0415 79.0589 92.1911 89.2256 88.0988 95.3017L86.1655 98.1813C85.8879 98.6012 85.7892 99.113 85.8909 99.6048C85.9926 100.097 86.2865 100.529 86.7083 100.806C87.0184 101.009 87.3809 101.118 87.7523 101.121C88.0688 101.121 88.3803 101.043 88.6588 100.893C88.9373 100.744 89.1739 100.529 89.3474 100.266L91.2683 97.405C97.2188 88.5631 102.649 80.2968 103.71 76.3138C104.453 73.2975 102.931 65.3872 99.9205 56.6178Z" fill="#A5C6FA"/>
<path d="M16.012 101.121C16.3752 101.121 16.7305 101.017 17.0351 100.821C17.2465 100.688 17.4292 100.515 17.5725 100.311C17.7159 100.107 17.8171 99.8775 17.8703 99.6349C17.926 99.3923 17.9322 99.1411 17.8884 98.8961C17.8447 98.6511 17.7519 98.4174 17.6155 98.2085C16.8702 97.045 15.9056 95.5959 14.8867 94.0681L14.5526 93.565C10.6253 87.667 4.68938 78.7548 3.90433 75.428C3.33643 73.1176 4.83344 65.9154 7.54561 57.914C10.5397 49.0805 13.92 42.4247 16.5883 40.1103C16.9336 39.8019 17.3061 39.5248 17.7011 39.2822L17.935 39.1435L18.1688 39.0048L18.2419 39.2656L18.3171 39.5244C18.6616 40.7396 19.0207 44.0023 17.5571 52.2003C17.4708 52.695 17.5852 53.2035 17.8754 53.615C18.1656 54.0264 18.608 54.3074 19.1063 54.3967C19.2084 54.4134 19.3118 54.4218 19.4153 54.4216C19.8658 54.4198 20.3017 54.2634 20.6489 53.9788C20.9961 53.6942 21.233 53.299 21.3195 52.8607C23.6746 39.6714 21.973 36.7648 19.9978 35.6635C19.4899 35.373 18.9139 35.2202 18.3275 35.2205C17.0623 35.2205 15.63 35.9057 14.0703 37.2596C11.0157 39.9094 7.14474 47.3001 3.96696 56.5498C0.95412 65.315 -0.561684 73.2542 0.192047 76.3078C1.05852 79.9679 5.76881 87.2343 11.3748 95.6518L11.8154 96.3163C12.78 97.7655 13.6945 99.1339 14.4023 100.25C14.5746 100.518 14.8126 100.738 15.0941 100.891C15.3755 101.043 15.6913 101.123 16.012 101.121V101.121Z" fill="#A5C6FA"/>
<path d="M42.4343 105.342H40.6909H40.1752L40.2733 105.065L40.2921 105.013L40.3089 104.961C40.3154 104.944 40.3209 104.927 40.3255 104.909L40.3443 104.858C41.6096 101.214 42.2235 96.7508 42.0627 92.2895C41.9124 88.0249 41.0626 84.2799 39.7284 82.013C38.4548 79.7358 36.5757 78.0797 34.398 76.1689C31.3643 73.4962 27.9255 70.4675 24.6726 64.6295C21.7725 59.4789 18.9664 58.3961 17.1227 58.3961C16.4628 58.3911 15.81 58.5326 15.2123 58.8102C11.8863 60.4104 10.9948 65.7433 13.1829 70.9457L14.4356 73.7487L14.4774 73.844C16.1477 77.6408 17.7449 81.2284 19.9706 85.2011C20.1352 85.4981 20.3768 85.7461 20.6705 85.9193C20.9642 86.0926 21.2992 86.1849 21.641 86.1866C21.9615 86.1866 22.2764 86.1023 22.5534 85.9423C22.7756 85.8228 22.9715 85.6606 23.1296 85.4651C23.2877 85.2695 23.4049 85.0447 23.4741 84.8037C23.5437 84.5654 23.5645 84.3158 23.5355 84.0694C23.5064 83.8231 23.4281 83.585 23.305 83.369C21.1482 79.506 19.5865 75.9722 17.9329 72.2313L16.6947 69.4448C15.1915 65.8717 15.8157 62.7291 16.8847 62.2177C16.9721 62.1766 17.0678 62.156 17.1645 62.1577C17.4568 62.1577 19.0436 62.3647 21.3403 66.4658C24.9064 72.8606 28.7628 76.2578 31.8612 78.9864C33.8572 80.744 35.4357 82.131 36.4191 83.8783C37.5716 85.8429 38.2585 89.4678 38.2523 93.5689C38.2523 97.8521 37.4944 102.028 36.1936 105.023L36.1602 105.096L36.1456 105.129C36.1456 105.15 36.1268 105.168 36.1184 105.189L36.0976 105.232L36.0433 105.355H35.6779L14.2331 105.458C13.7284 105.461 13.2453 105.661 12.889 106.016C12.5327 106.37 12.3321 106.85 12.331 107.35V116.853C12.3316 117.354 12.5328 117.835 12.8906 118.19C13.2483 118.545 13.7334 118.744 14.2394 118.745H19.0311C19.537 118.744 20.0221 118.545 20.3799 118.19C20.7376 117.835 20.9389 117.354 20.9394 116.853C20.9389 116.351 20.7376 115.87 20.3799 115.515C20.0221 115.16 19.537 114.961 19.0311 114.96H16.1477V109.234H16.5653L36.3523 109.139H36.6634H37.8409H38.1541H40.1481H40.5657V109.346V109.553L40.6366 114.43V114.637V114.844H26.416C25.9102 114.845 25.4254 115.045 25.0679 115.399C24.7105 115.754 24.5097 116.235 24.5097 116.737C24.5103 117.238 24.7113 117.718 25.0687 118.072C25.426 118.427 25.9106 118.626 26.416 118.627H42.5763C42.8289 118.627 43.0789 118.577 43.3119 118.48C43.5448 118.384 43.7561 118.242 43.9334 118.064C44.112 117.886 44.2528 117.675 44.3475 117.442C44.4422 117.209 44.4888 116.96 44.4846 116.71L44.3427 107.205C44.3323 106.709 44.1271 106.237 43.7706 105.889C43.4141 105.541 42.9346 105.345 42.4343 105.342V105.342Z" fill="#A5C6FA"/>
<path d="M64.8208 51.1919C66.0584 51.2003 67.2634 50.7989 68.2449 50.0512H68.2595C70.0384 48.8774 70.9613 46.7513 70.7379 44.3582L69.0049 33.4399L68.9882 33.3385L68.9715 33.235L69.0467 33.1605L69.1197 33.0859L77.0538 25.1032C78.6134 23.5567 79.1103 21.3996 78.4547 19.023C78.0993 17.9977 77.4655 17.0896 76.623 16.3985C75.7805 15.7074 74.762 15.2603 73.6797 15.1062L66.8335 14.0173C66.7321 14.0002 66.6294 13.9912 66.5266 13.9903C66.074 13.9946 65.6374 14.157 65.2937 14.4489C64.95 14.7409 64.7212 15.1437 64.6475 15.5865C64.568 16.0819 64.69 16.5884 64.9867 16.9947C65.2834 17.4011 65.7306 17.6741 66.2301 17.754L73.0659 18.8429C73.9491 18.9878 74.5274 19.4267 74.8093 20.1492V20.1596V20.1782C75.064 21.1098 74.9032 21.8675 74.3311 22.4347L65.562 31.2579C65.3537 31.4696 65.1981 31.7266 65.1075 32.0083C65.0169 32.29 64.9938 32.5888 65.04 32.881L66.9421 44.8116V44.8322C66.9817 45.2691 66.9692 46.3332 66.013 46.9791C65.6539 47.2538 65.2137 47.4036 64.7602 47.4055C64.4406 47.3967 64.1272 47.3161 63.8436 47.1695L52.7527 41.6028C52.4896 41.467 52.1975 41.396 51.9009 41.3957C51.5935 41.3951 51.2903 41.466 51.0156 41.6028L40.1585 47.1178C39.8329 47.2749 39.4767 47.3597 39.1146 47.3662C38.5779 47.3444 38.0638 47.1463 37.6531 46.8031C37.2919 46.5816 36.7281 46.0413 36.9369 44.8944L38.7116 32.8271C38.7548 32.5408 38.7305 32.2484 38.6406 31.973C38.5508 31.6975 38.3979 31.4464 38.1938 31.2393L29.5437 22.3809C28.9173 21.7598 28.7732 21.0311 29.0906 20.1409C29.3704 19.1493 30.312 18.8822 30.7045 18.8139L42.8958 16.7748C43.1866 16.7262 43.462 16.6114 43.7004 16.4394C43.9388 16.2673 44.1337 16.0426 44.2696 15.7831L50.0385 4.88558C50.2081 4.54534 50.4715 4.25976 50.7982 4.0619C51.1249 3.86404 51.5014 3.76203 51.8841 3.76769C52.4145 3.76769 53.377 3.91259 53.8739 4.89387L56.7531 10.5952C56.9104 10.9107 57.1539 11.1759 57.4559 11.3607C57.7579 11.5456 58.1061 11.6426 58.461 11.6406C58.7575 11.6392 59.0494 11.5683 59.3129 11.4336C59.5376 11.3228 59.738 11.169 59.9024 10.981C60.0669 10.7931 60.1923 10.5747 60.2712 10.3385C60.3512 10.102 60.383 9.85211 60.3648 9.60333C60.3465 9.35455 60.2785 9.11187 60.1648 8.88938L57.2876 3.18802C56.2771 1.17579 54.256 -0.0249371 51.8841 -0.0249371C50.798 -0.0341142 49.731 0.258496 48.8041 0.819773C47.8771 1.38105 47.1272 2.18857 46.6394 3.15078L41.4196 13.0028L41.3716 13.0939L41.3236 13.1851L41.2213 13.2016L41.119 13.2182L30.0406 15.0813C27.7543 15.4954 25.9984 16.9797 25.4597 18.9671V18.9858C25.0644 20.0156 24.9837 21.138 25.2276 22.213C25.4715 23.2881 26.0294 24.2681 26.8315 25.0308L34.6611 33.0466L34.7321 33.119L34.8031 33.1936L34.7884 33.2929L34.7738 33.3944L33.1745 44.2733C32.7569 46.5505 33.7027 48.8567 35.4712 49.8939H35.4837H35.4962C36.4983 50.6804 37.7384 51.1093 39.0164 51.1112C39.9777 51.105 40.9264 50.8931 41.7975 50.4901L51.6754 45.472L51.7693 45.4243L51.8654 45.3767L51.9593 45.4243L52.0554 45.472L62.1002 50.5129C62.9413 50.9464 63.8729 51.1789 64.8208 51.1919Z" fill="#A76ACF"/>
</g>
<defs>
<clipPath id="clip0_39_944">
<rect width="103.898" height="118.761" fill="white"/>
</clipPath>
</defs>
</svg>
