<svg width="120" height="119" viewBox="0 0 120 119" fill="none" xmlns="http://www.w3.org/2000/svg">
<g clip-path="url(#clip0_39_996)">
<path d="M28.82 8.80536C29.5918 9.02928 30.3824 9.24696 31.1835 9.46258L31.7398 8.19582C31.9618 7.68607 31.9716 7.11001 31.767 6.59315C31.6661 6.33712 31.5149 6.1035 31.322 5.90596C31.1292 5.70841 30.8987 5.55087 30.6439 5.44245L18.3642 0.172102C18.1002 0.0582843 17.8154 -0.000315839 17.5276 1.28023e-06C17.2625 2.22271e-05 16.9999 0.049969 16.7537 0.147198C16.4953 0.248043 16.2595 0.398482 16.0599 0.589904C15.8604 0.781325 15.7009 1.00998 15.5908 1.26267L6.72452 21.5293C6.50452 22.0387 6.49675 22.6137 6.70287 23.1287C6.90898 23.6438 7.31226 24.0571 7.82469 24.2785C8.08881 24.3916 8.37362 24.4495 8.66133 24.4485C9.07408 24.4498 9.4782 24.3314 9.82385 24.1077C10.1695 23.8841 10.4416 23.5651 10.6065 23.19L18.5545 5.02986L18.6382 4.83913L18.8306 4.92205L26.8498 8.36377L27.0422 8.44668L26.9585 8.63741L26.6887 9.2594C27.1052 8.90929 27.6338 8.7175 28.18 8.71829C28.3963 8.71833 28.6117 8.74761 28.82 8.80536Z" fill="#A5C6FA"/>
<path d="M27.5775 13.0162C28.1757 13.1883 28.7801 13.3583 29.3971 13.5262L31.0997 9.65328C30.309 9.44595 29.5247 9.22615 28.7613 9.00431C28.5673 8.94993 28.3667 8.92205 28.1652 8.92139C27.8158 8.92051 27.4718 9.00636 27.1646 9.17114C26.8573 9.33593 26.5966 9.57441 26.4062 9.86476L26.128 10.4971C25.9938 11.0213 26.0699 11.5766 26.3402 12.0464C26.6105 12.5162 27.054 12.8638 27.5775 13.0162Z" fill="#A5C6FA"/>
<path d="M28.1652 8.70801V8.81167C28.3774 8.81188 28.5885 8.84116 28.7926 8.89874C29.5582 9.12058 30.3467 9.33831 31.1415 9.55186L31.1833 9.4565C30.3823 9.24916 29.5916 9.02314 28.8199 8.79922C28.607 8.73875 28.3866 8.70805 28.1652 8.70801V8.70801Z" fill="#A5C6FA"/>
<path d="M28.1652 8.81778V8.71411C27.6191 8.71332 27.0905 8.90511 26.6739 9.25522L26.5693 9.48953C26.7754 9.27597 27.0231 9.10624 27.2975 8.99074C27.5719 8.87525 27.8671 8.81641 28.1652 8.81778Z" fill="#A5C6FA"/>
<path d="M26.2283 12.0626C26.0271 11.7006 25.9343 11.2892 25.9607 10.8767L25.8561 11.1172C25.8788 11.5965 26.0524 12.0566 26.3525 12.4329C26.6527 12.8093 27.0642 13.0829 27.5293 13.2154C28.1171 13.3854 28.7194 13.5513 29.3239 13.7171L29.3657 13.6218C28.7529 13.4538 28.1547 13.288 27.5586 13.1159C27.2775 13.0366 27.0151 12.9027 26.7867 12.7218C26.5583 12.541 26.3685 12.3169 26.2283 12.0626Z" fill="#A5C6FA"/>
<path d="M27.5775 13.0162C27.054 12.8638 26.6105 12.5161 26.3402 12.0464C26.0699 11.5766 25.9938 11.0213 26.128 10.4971L25.9607 10.8765C25.9343 11.289 26.0271 11.7004 26.2284 12.0624C26.3673 12.3157 26.5555 12.5391 26.782 12.7199C27.0085 12.9007 27.2689 13.0352 27.5482 13.1157C28.1443 13.2878 28.7425 13.4536 29.3553 13.6216L29.3971 13.5262C28.7801 13.3583 28.1757 13.1883 27.5775 13.0162Z" fill="#A5C6FA"/>
<path d="M28.1652 8.81787V8.92154C28.3667 8.92219 28.5673 8.95007 28.7613 9.00445C29.5247 9.22629 30.309 9.44194 31.0997 9.65342L31.1415 9.55806C30.3467 9.35073 29.5582 9.12678 28.7926 8.90493C28.5885 8.84736 28.3774 8.81807 28.1652 8.81787V8.81787Z" fill="#A5C6FA"/>
<path d="M28.1651 8.91521V8.81155C27.867 8.81018 27.5718 8.86906 27.2975 8.98456C27.0231 9.10005 26.7753 9.26974 26.5693 9.4833L26.4061 9.85858C26.5965 9.56823 26.8573 9.32975 27.1645 9.16496C27.4718 9.00018 27.8158 8.91433 28.1651 8.91521V8.91521Z" fill="#A5C6FA"/>
<path d="M29.6021 13.5822L31.3025 9.70923L31.2022 9.68018L29.4996 13.5532L29.6021 13.5822Z" fill="#A5C6FA"/>
<path d="M47.3785 50.1616C51.4759 59.618 53.7809 64.6168 57.3261 65.9997C57.9561 66.2461 58.6274 66.3721 59.3047 66.3708C60.2405 66.3568 61.1631 66.1491 62.0133 65.7612C66.9975 63.6444 65.2385 56.6573 64.5776 54.0284C63.1553 48.3703 59.9573 40.6513 56.7111 33.1542C56.5479 32.7781 56.2766 32.4578 55.9311 32.2333C55.5856 32.0088 55.1812 31.89 54.7681 31.8916C54.4808 31.8909 54.1963 31.9473 53.9315 32.0575C53.4183 32.2764 53.0138 32.6882 52.8068 33.2025C52.5997 33.7168 52.607 34.2915 52.8271 34.8005C56.0021 42.1379 59.1248 49.6682 60.476 55.0381C61.4611 58.9566 61.4067 61.4653 60.3254 61.9277C60.0036 62.0825 59.6536 62.1713 59.2963 62.1889C59.1532 62.1904 59.0111 62.1644 58.878 62.1122C56.7864 61.2995 54.1866 55.2703 50.5807 46.9438C50.4212 46.5669 50.1528 46.2452 49.8093 46.0191C49.4658 45.793 49.0626 45.6725 48.6502 45.6729C48.536 45.6727 48.422 45.6816 48.3093 45.6998C47.3616 45.8575 46.4027 45.9401 45.4417 45.9466C38.8449 45.9466 34.5843 41.3501 32.4132 31.8978C32.3057 31.4378 32.0449 31.027 31.6731 30.7317C31.3012 30.4364 30.8399 30.2739 30.3635 30.2703C30.2044 30.2705 30.0458 30.2886 29.8908 30.3242C29.3457 30.4473 28.8721 30.7797 28.5737 31.2484C28.2754 31.717 28.1766 32.2839 28.2991 32.8246C29.7528 39.1441 32.2188 43.7986 35.6343 46.6577C38.3534 48.9384 41.7187 50.1015 45.6049 50.1015C46.1173 50.1015 46.6507 50.0829 47.1756 50.0414L47.3262 50.031L47.3785 50.1616Z" fill="#A5C6FA"/>
<path d="M69.589 40.9542C69.7412 41.3476 70.0106 41.6857 70.3615 41.9235C70.7124 42.1612 71.128 42.2874 71.553 42.2852C71.8158 42.2846 72.0761 42.2354 72.3206 42.1401C72.5791 42.0412 72.8152 41.8925 73.0152 41.7024C73.2152 41.5123 73.3751 41.2848 73.4856 41.0329C73.5973 40.7818 73.6576 40.5112 73.663 40.2368C73.6684 39.9624 73.6188 39.6897 73.517 39.4344C65.272 18.523 48.1963 14.0965 34.4756 10.5408C33.4298 10.2691 32.3609 9.99132 31.3026 9.71143L29.6022 13.5844C30.7797 13.9037 32.0179 14.2271 33.4067 14.5879C46.8661 18.0731 62.12 22.0248 69.589 40.9542Z" fill="#A5C6FA"/>
<path d="M43.0154 64.6686C32.5701 59.5662 26.31 47.1678 24.1055 42.0695C23.942 41.6935 23.6707 41.3734 23.3252 41.149C22.9798 40.9245 22.5754 40.8055 22.1624 40.8069C21.8749 40.8059 21.5902 40.863 21.3258 40.9748C21.0711 41.0823 20.8406 41.2388 20.6474 41.4353C20.4543 41.6317 20.3024 41.8642 20.2005 42.1193C20.0968 42.3737 20.045 42.646 20.0482 42.9204C20.0515 43.1948 20.1096 43.4659 20.2193 43.7178C22.61 49.2391 29.4327 62.6949 41.1351 68.4151C41.4259 68.5542 41.7451 68.6251 42.068 68.6225C42.462 68.625 42.8487 68.5172 43.1835 68.3114C43.5184 68.1056 43.7879 67.8103 43.9608 67.4594C44.2054 66.9645 44.2433 66.3939 44.0663 65.8715C43.8894 65.3491 43.5118 64.9169 43.0154 64.6686V64.6686Z" fill="#A5C6FA"/>
<path d="M116.449 67.0302C116.28 66.6645 116.009 66.3544 115.668 66.1368C115.327 65.9192 114.93 65.8033 114.524 65.8027C114.224 65.8023 113.927 65.866 113.654 65.9894C113.147 66.2202 112.752 66.6409 112.556 67.1595C112.36 67.6781 112.379 68.2525 112.609 68.7572C114.476 72.8271 115.422 77.3553 115.422 82.2172C115.422 99.9876 100.822 114.445 82.8788 114.445C64.8598 114.445 50.1999 99.9876 50.1999 82.2172C50.1982 78.2729 50.9358 74.3626 52.3752 70.6854C52.5774 70.1686 52.5653 69.5936 52.3416 69.0856C52.1179 68.5776 51.7007 68.1779 51.1809 67.9735C50.9349 67.8782 50.6732 67.829 50.4091 67.8284C49.9846 67.8258 49.5693 67.9514 49.2185 68.1885C48.8677 68.4255 48.598 68.7627 48.4451 69.1553C46.8028 73.3171 45.9662 77.7484 45.9792 82.2172C45.9792 102.293 62.5319 118.625 82.8788 118.625C103.15 118.625 119.643 102.293 119.643 82.2172C119.638 76.754 118.565 71.6433 116.449 67.0302Z" fill="#A5C6FA"/>
<path d="M68.4867 50.7962C68.6427 51.1923 68.9156 51.5326 69.2697 51.7727C69.6238 52.0127 70.0426 52.1414 70.4716 52.1418C70.7238 52.1426 70.974 52.0976 71.2099 52.0092C74.945 50.589 78.9098 49.8548 82.9102 49.8425C87.5427 49.8519 92.1189 50.8496 96.3277 52.768C96.6006 52.8925 96.8974 52.9568 97.1978 52.9566C97.6033 52.9567 98.0003 52.841 98.3411 52.6234C98.682 52.4057 98.9524 52.0953 99.12 51.7292C99.2357 51.4798 99.3003 51.21 99.31 50.9356C99.3197 50.6612 99.2743 50.3876 99.1764 50.1307C99.0796 49.8739 98.9323 49.6387 98.7431 49.4387C98.5539 49.2387 98.3265 49.0778 98.0742 48.9655C93.3188 46.7958 88.1472 45.6685 82.9123 45.6606C78.3993 45.6728 73.9264 46.4997 69.7124 48.1009C69.1899 48.298 68.7674 48.6924 68.5377 49.1976C68.3079 49.7028 68.2896 50.2777 68.4867 50.7962V50.7962Z" fill="#A5C6FA"/>
<path d="M107.344 60.7481C107.542 60.9724 107.786 61.1521 108.06 61.2751C108.334 61.3981 108.631 61.4616 108.932 61.4613C109.443 61.4632 109.937 61.2795 110.321 60.945C110.53 60.765 110.701 60.5454 110.825 60.2991C110.948 60.0528 111.02 59.7847 111.038 59.5103C111.057 59.2364 111.022 58.9613 110.933 58.7011C110.844 58.441 110.704 58.2008 110.521 57.9947C109.536 56.9255 108.482 55.9206 107.365 54.9863L106.451 55.9898L104.588 58.1315C105.563 58.9427 106.484 59.8168 107.344 60.7481Z" fill="#A5C6FA"/>
<path d="M83.8913 80.1542L83.5797 80.1376C83.3454 80.1376 83.1111 80.1272 82.8748 80.1272C82.6384 80.1272 82.4564 80.1272 82.2473 80.1127L81.967 80.1003C79.8294 79.9717 77.8173 79.3933 76.2298 78.4416C74.5084 77.405 73.5212 76.076 73.5212 74.7884C73.5212 73.5009 74.5084 72.1719 76.2298 71.1353C77.8173 70.1795 79.8294 69.601 81.967 69.4766L82.2473 69.4642C82.4564 69.4642 82.6656 69.4496 82.8748 69.4496C83.0839 69.4496 83.2826 69.4497 83.4897 69.4663L83.7658 69.4808C87.928 69.7586 92.2262 71.9376 92.2262 74.7905C92.2268 75.345 92.4494 75.8765 92.8451 76.2684C93.2408 76.6603 93.7773 76.8804 94.3366 76.8804C94.8958 76.8799 95.432 76.6595 95.8276 76.2678C96.2232 75.876 96.446 75.3448 96.4471 74.7905C96.4471 70.0965 91.5758 66.1863 85.1943 65.4108L85.0898 65.3984C85.0542 65.3984 85.0207 65.3881 84.9852 65.386V61.1419C84.9841 60.5876 84.7613 60.0563 84.3657 59.6646C83.9701 59.2728 83.4339 59.0525 82.8748 59.052C82.3156 59.0525 81.7794 59.2728 81.3838 59.6646C80.9882 60.0563 80.7654 60.5876 80.7643 61.1419V65.386C80.7288 65.386 80.6953 65.3859 80.6598 65.3984L80.5552 65.4108C74.1759 66.1863 69.3067 70.0965 69.3067 74.7905C69.3067 79.7996 74.8473 83.9131 81.8562 84.2821C81.9608 84.2821 82.0653 84.2967 82.1699 84.3008C82.4042 84.3008 82.6405 84.3132 82.8769 84.3132C83.1132 84.3132 83.2952 84.3132 83.5043 84.3257L83.7846 84.3381C85.9724 84.4605 88.0033 85.0223 89.5762 85.9532C91.2641 86.9505 92.2304 88.2505 92.2304 89.5173C92.2304 92.2395 88.4468 94.5658 83.7825 94.8332L83.5022 94.8477C83.2931 94.8477 83.0839 94.8602 82.8748 94.8602C82.6656 94.8602 82.4564 94.8602 82.2473 94.8477L81.967 94.8332C77.3028 94.5658 73.5212 92.2395 73.5212 89.5173C73.5201 88.963 73.2974 88.4317 72.9018 88.04C72.5062 87.6482 71.97 87.4279 71.4108 87.4273C70.8514 87.4273 70.315 87.6475 69.9193 88.0394C69.5235 88.4312 69.301 88.9628 69.3004 89.5173C69.3004 94.3004 74.0839 98.1526 80.5489 98.9052L80.6535 98.9177C80.6891 98.9177 80.7226 98.9176 80.7581 98.9301V103.166C80.7592 103.72 80.982 104.251 81.3776 104.643C81.7732 105.035 82.3093 105.255 82.8685 105.256C83.4277 105.255 83.9639 105.035 84.3594 104.643C84.755 104.251 84.9778 103.72 84.9789 103.166V98.9301C85.0145 98.9301 85.0479 98.9301 85.0835 98.9177L85.1881 98.9052C91.6552 98.1547 96.4408 94.3004 96.4408 89.5173C96.4471 84.4853 91.0089 80.5025 83.8913 80.1542Z" fill="#A76ACF"/>
<path d="M13.1623 40.0151L12.9699 39.9321L5.08882 36.5112L4.89636 36.4261L4.98215 36.2375L6.63238 32.5366C6.85757 32.0292 6.87066 31.4541 6.66874 30.9372C6.46683 30.4203 6.0664 30.0038 5.55524 29.7791C5.28628 29.6621 4.99559 29.6021 4.70186 29.6029C4.29305 29.6024 3.89292 29.7197 3.55016 29.9406C3.2074 30.1614 2.93681 30.4763 2.77133 30.8469L0.179887 36.6521C0.0669446 36.9036 0.00563413 37.1748 -0.00047059 37.4499C-0.00657532 37.7251 0.0426132 37.9987 0.144296 38.2548C0.245075 38.5108 0.395776 38.7445 0.587787 38.9427C0.779797 39.1408 1.00937 39.2995 1.26331 39.4097L13.407 44.68C13.6709 44.7947 13.9556 44.8547 14.2437 44.8563C14.5078 44.8557 14.7695 44.8064 15.0155 44.7111C15.536 44.5067 15.9545 44.1076 16.1805 43.5998L29.3052 13.7213C28.7007 13.5554 28.0983 13.3896 27.5106 13.2196C27.0454 13.087 26.6339 12.8134 26.3337 12.4371C26.0336 12.0607 25.86 11.6005 25.8373 11.1213L13.246 39.8077L13.1623 40.0151Z" fill="#A5C6FA"/>
<path d="M29.4913 13.5532L31.1938 9.68025L31.0913 9.65332L29.3888 13.5263L29.4913 13.5532Z" fill="#A5C6FA"/>
</g>
<defs>
<clipPath id="clip0_39_996">
<rect width="119.638" height="118.625" fill="white"/>
</clipPath>
</defs>
</svg>
