<svg width="97" height="121" viewBox="0 0 97 121" fill="none" xmlns="http://www.w3.org/2000/svg">
<path d="M15.7364 79.459C15.2486 79.4595 14.781 79.6519 14.4359 79.9939C14.0908 80.3359 13.8964 80.7997 13.8953 81.2836V97.5334C13.8958 98.0177 14.09 98.482 14.4351 98.8245C14.7803 99.1669 15.2483 99.3596 15.7364 99.3601C16.2245 99.3596 16.6925 99.1669 17.0376 98.8245C17.3828 98.482 17.5769 98.0177 17.5775 97.5334V81.2836C17.5764 80.7997 17.382 80.3359 17.0369 79.9939C16.6918 79.6519 16.2242 79.4595 15.7364 79.459Z" fill="#A5C6FA"/>
<path d="M39.4244 67.371L51.654 61.1942C53.61 62.3926 55.7312 63.475 57.8336 64.5387C61.031 66.1602 64.3392 67.8355 66.7822 69.8779C67.1153 70.1537 67.5353 70.3049 67.9692 70.305C68.2378 70.3055 68.5032 70.2476 68.7469 70.1355C68.9906 70.0234 69.2066 69.8597 69.3798 69.656C69.6917 69.2841 69.8433 68.8053 69.8018 68.3233C69.7604 67.8413 69.5291 67.3948 69.1583 67.0808C66.4101 64.8 62.9118 63.0147 59.5138 61.2896C52.9497 57.9721 46.7492 54.8162 46.7492 48.5108V45.3819C52.7553 40.1278 54.6153 30.227 54.6675 24.2533C56.4125 17.9728 57.5347 12.8742 55.2129 9.23315C54.0677 7.42923 52.2287 6.22039 49.5934 5.54029C49.333 4.75746 48.8947 4.04448 48.3123 3.45645C46.2539 1.32493 42.022 0 37.2677 0C29.7444 0 24.4153 1.97603 21.429 5.87207C18.2754 9.97546 17.799 16.1585 20.0079 24.2492C20.058 30.9506 22.1353 40.3911 27.8614 45.3384L27.922 45.3861V48.5108C27.922 54.7768 21.6986 57.9223 15.1031 61.2543C8.0249 64.8352 0 68.893 0 77.7031V97.5337C0.00110574 98.0182 0.195739 98.4826 0.54123 98.825C0.88672 99.1674 1.35491 99.3599 1.84323 99.3605C2.33136 99.3599 2.79931 99.1673 3.14447 98.8248C3.48963 98.4824 3.68377 98.018 3.68432 97.5337V77.7031C3.68432 71.1282 10.0416 67.9143 16.7854 64.5055C18.8752 63.4522 20.965 62.3885 22.9127 61.2087L35.6962 67.6655L41.7462 90.6374L37.2844 94.9689L32.9292 90.6478L35.9908 78.997C36.0528 78.7646 36.0678 78.5224 36.0348 78.2843C36.0018 78.0462 35.9215 77.8169 35.7985 77.6098C35.6767 77.403 35.5148 77.2222 35.3222 77.0777C35.1296 76.9332 34.9101 76.828 34.6763 76.768C34.2045 76.6483 33.7042 76.7179 33.2837 76.9616C32.8632 77.2053 32.5564 77.6036 32.4297 78.0701L29.0986 90.737C29.0165 91.0455 29.0173 91.3699 29.1009 91.6781C29.1845 91.9862 29.348 92.2672 29.5751 92.4932L35.9657 98.8276C36.3113 99.1694 36.7797 99.3611 37.2677 99.3605C37.7497 99.3594 38.2122 99.172 38.5571 98.838L45.0857 92.5035C45.3169 92.2784 45.4841 91.9966 45.5704 91.6868C45.6566 91.3769 45.6589 91.05 45.5768 90.739L39.4244 67.371ZM30.5301 42.8585C30.4552 42.7617 30.3705 42.6728 30.2772 42.5931C25.7695 38.6929 23.7298 30.567 23.6922 24.1807C24.9461 17.9458 29.2051 17.3114 36.0221 16.8075C38.5801 16.6209 41.2216 16.4281 43.5685 15.6671C44.5152 18.4497 46.4608 19.8451 48.0344 20.9731C49.3969 21.9476 50.4837 22.7293 50.9748 24.2533C50.9058 32.1947 47.5768 44.1378 38.5738 45.1808C38.3329 45.2075 38.0998 45.2816 37.8881 45.3988C37.6764 45.5159 37.4903 45.6737 37.3408 45.863C37.1908 46.0499 37.0798 46.2647 37.0145 46.4947C36.9492 46.7247 36.9308 46.9653 36.9604 47.2024C37.0113 47.6474 37.2258 48.0582 37.5628 48.3562C37.8997 48.6542 38.3356 48.8185 38.7869 48.8177C38.8569 48.8179 38.9267 48.813 38.9959 48.8031C40.3945 48.6469 41.7618 48.2842 43.0523 47.727V48.5108C43.0523 53.0475 45.1755 56.249 48.258 58.8076L37.2551 64.3645L26.3045 58.8346C29.4392 56.2718 31.5938 53.0641 31.5938 48.5108V44.5152C31.594 44.1672 31.4939 43.8265 31.3055 43.533C31.1171 43.2395 30.8481 43.0055 30.5301 42.8585ZM47.6457 8.85369C49.9048 9.25387 51.3593 10.0148 52.097 11.1801C53.236 12.9654 52.9329 15.9325 52.097 19.4947C51.4917 18.9653 50.856 18.471 50.1932 18.0142C48.4252 16.7494 47.0292 15.7501 46.7324 12.926C46.7004 12.6243 46.593 12.3353 46.4201 12.0851C46.2471 11.835 46.014 11.6315 45.7419 11.4932C45.4689 11.3587 45.1671 11.292 44.8624 11.2988C44.5577 11.3057 44.2592 11.3859 43.9927 11.5326C41.8799 12.7207 38.904 12.9384 35.7463 13.1707C31.1487 13.5107 25.7152 13.9129 22.4802 17.9624C21.9744 13.6786 22.5972 10.3673 24.3505 8.08029C26.6096 5.14219 30.9523 3.6514 37.2614 3.6514C40.9311 3.6514 44.302 4.58652 45.6478 5.97782C46.1389 6.49204 46.1264 6.85901 46.1222 6.97927C46.103 7.42207 46.2471 7.85667 46.5275 8.20168C46.8079 8.54669 47.2055 8.77846 47.6457 8.85369Z" fill="#A5C6FA"/>
<path d="M72.9722 73.5371C60.0154 73.5371 49.4597 83.9936 49.4597 96.847C49.4597 109.7 60.007 120.155 72.9722 120.155C85.9375 120.155 96.4848 109.698 96.4848 96.847C96.4848 83.9957 85.9354 73.5371 72.9722 73.5371ZM92.8004 96.847C92.7894 102.06 90.6963 107.056 86.9797 110.74C83.2631 114.424 78.2261 116.497 72.9722 116.503C67.718 116.497 62.6805 114.425 58.9635 110.741C55.2464 107.056 53.1531 102.06 53.142 96.847C53.1525 91.6336 55.2457 86.6369 58.9628 82.952C62.6799 79.2671 67.7177 77.1945 72.9722 77.1885C78.2264 77.1951 83.2637 79.2679 86.9804 82.9528C90.697 86.6376 92.7899 91.634 92.8004 96.847Z" fill="#A5C6FA"/>
<path d="M80.0548 95.0208H74.8135V89.8247C74.8124 89.3407 74.618 88.8769 74.2729 88.5349C73.9278 88.1929 73.4601 88.0005 72.9724 88C72.4842 88 72.0161 88.1921 71.6705 88.5342C71.325 88.8763 71.1302 89.3404 71.1291 89.8247V95.0208H65.7458C65.2574 95.0213 64.7893 95.2139 64.4438 95.5563C64.0983 95.8987 63.9037 96.363 63.9026 96.8475C63.9037 97.3318 64.0984 97.7959 64.4439 98.138C64.7895 98.48 65.2576 98.6721 65.7458 98.6721H71.1291V104.011C71.1302 104.496 71.325 104.96 71.6705 105.302C72.0161 105.644 72.4842 105.836 72.9724 105.836C73.4601 105.835 73.9278 105.643 74.2729 105.301C74.618 104.959 74.8124 104.495 74.8135 104.011V98.6721H80.0548C80.5425 98.6716 81.0102 98.4793 81.3553 98.1373C81.7004 97.7952 81.8948 97.3315 81.8959 96.8475C81.8953 96.3632 81.7012 95.8989 81.356 95.5564C81.0109 95.2139 80.5429 95.0213 80.0548 95.0208Z" fill="#A76ACF"/>
</svg>
